<?xml version="1.0" encoding="UTF-8" standalone="no"?>
<svg
   xmlns:dc="http://purl.org/dc/elements/1.1/"
   xmlns:cc="http://creativecommons.org/ns#"
   xmlns:rdf="http://www.w3.org/1999/02/22-rdf-syntax-ns#"
   xmlns:svg="http://www.w3.org/2000/svg"
   xmlns="http://www.w3.org/2000/svg"
   xmlns:sodipodi="http://sodipodi.sourceforge.net/DTD/sodipodi-0.dtd"
   xmlns:inkscape="http://www.inkscape.org/namespaces/inkscape"
   sodipodi:docname="drawing.svg"
   inkscape:version="1.0.2 (e86c8708, 2021-01-15)"
   id="svg8"
   version="1.1"
   viewBox="0 0 68.186325 10.857141"
   height="10.857141mm"
   width="68.186325mm">
  <defs
     id="defs2">
    <rect
       x="113.01488"
       y="7.9375"
       width="87.123512"
       height="15.119048"
       id="rect799" />
  </defs>
  <sodipodi:namedview
     id="base"
     pagecolor="#ffffff"
     bordercolor="#666666"
     borderopacity="1.0"
     inkscape:pageopacity="0.0"
     inkscape:pageshadow="2"
     inkscape:zoom="1.6076602"
     inkscape:cx="228.05816"
     inkscape:cy="129.96821"
     inkscape:document-units="mm"
     inkscape:current-layer="layer1"
     inkscape:document-rotation="0"
     showgrid="false"
     inkscape:window-width="1597"
     inkscape:window-height="943"
     inkscape:window-x="0"
     inkscape:window-y="23"
     inkscape:window-maximized="0"
     units="mm"
     inkscape:snap-bbox="true"
     inkscape:snap-to-guides="false"
     fit-margin-top="0"
     fit-margin-left="0"
     fit-margin-right="0"
     fit-margin-bottom="0" />
  <metadata
     id="metadata5">
    <rdf:RDF>
      <cc:Work
         rdf:about="">
        <dc:format>image/svg+xml</dc:format>
        <dc:type
           rdf:resource="http://purl.org/dc/dcmitype/StillImage" />
        <dc:title></dc:title>
      </cc:Work>
    </rdf:RDF>
  </metadata>
  <g
     inkscape:label="Layer 1"
     inkscape:groupmode="layer"
     id="layer1"
     transform="translate(-0.45973163,-0.29555788)">
    <text
       xml:space="preserve"
       style="font-style:normal;font-weight:normal;font-size:10.5833px;line-height:1.25;font-family:sans-serif;fill:#ffffff;fill-opacity:1;stroke:none;stroke-width:0.264583"
       x="25.123335"
       y="37.685001"
       id="text42"><tspan
         sodipodi:role="line"
         id="tspan40"
         x="25.123335"
         y="37.685001"
         style="stroke-width:0.264583" /></text>
    <text
       xml:space="preserve"
       id="text797"
       style="font-style:normal;font-weight:normal;font-size:10.58329999999999949px;line-height:1.25;font-family:sans-serif;white-space:pre;shape-inside:url(#rect799);fill:#ffffff;fill-opacity:1;stroke:none;" />
    <g
       id="g1062"
       transform="translate(-36.042287,-32.421601)">
      <path
         d="m 78.313063,32.802856 -0.09396,-0.06576 c -0.05379,-0.03614 -0.126812,-0.02179 -0.16291,0.03206 -0.02743,0.04082 -0.02648,0.09434 0.0025,0.134196 0.514758,0.696955 0.633104,2.086155 0.244267,2.859187 -0.0827,0.185319 -0.223007,0.338802 -0.400171,0.437669 -0.239491,0.120254 -0.440533,0.137186 -0.595481,0.05265 -0.232937,-0.126812 -0.306211,-0.445244 -0.307162,-0.448048 -0.01243,-0.06366 -0.07404,-0.105229 -0.137699,-0.09281 -0.02819,0.0055 -0.05335,0.02114 -0.07086,0.04399 -0.993996,1.231006 -1.296639,2.881852 -0.804032,4.385518 0.397368,1.173138 1.237055,1.961195 2.365121,2.220421 0.06315,0.01475 0.126239,-0.02451 0.141006,-0.0876 0.007,-0.03005 0.002,-0.06163 -0.01419,-0.08804 -1.001259,-1.633407 -0.358793,-2.58679 0.262981,-3.509168 0.313716,-0.469625 0.612413,-0.909202 0.687533,-1.41645 0.569253,0.671623 2.182924,2.864855 0.834146,4.801669 -0.03553,0.05424 -0.02028,0.126938 0.03397,0.162463 0.0308,0.02018 0.06939,0.02471 0.104087,0.01223 1.335535,-0.504827 2.220733,-1.78173 2.225127,-3.209515 -0.001,-3.279985 -2.913617,-5.268485 -4.314091,-6.224672 z m 2.348189,9.065021 c 1.281232,-2.381988 -1.221075,-4.951906 -1.245461,-4.9782 -0.04545,-0.04621 -0.119871,-0.04681 -0.166086,-0.0015 -0.02335,0.02305 -0.03609,0.05488 -0.03493,0.08772 0.01787,0.557983 -0.313721,1.049191 -0.664044,1.56955 -0.602104,0.892335 -1.28028,1.899252 -0.413288,3.512032 -0.909261,-0.297805 -1.586486,-0.995652 -1.924588,-1.99226 -0.444539,-1.356227 -0.20976,-2.843464 0.631196,-3.996615 0.07213,0.163353 0.193658,0.29997 0.347524,0.390749 0.227331,0.123948 0.50063,0.107077 0.813394,-0.04887 0.223002,-0.120767 0.400423,-0.311113 0.505336,-0.541947 0.356946,-0.70822 0.330652,-1.847555 -0.01309,-2.655347 1.446493,1.00221 3.894245,2.88453 3.894245,5.815078 -0.004,1.195356 -0.671558,2.289558 -1.732969,2.839458 z m 0,0"
         style="fill:#ffffff;fill-opacity:1;fill-rule:nonzero;stroke:none;stroke-width:0.0162971"
         id="path832" />
      <text
         xml:space="preserve"
         style="font-style:normal;font-weight:normal;font-size:10.5833px;line-height:1.25;font-family:sans-serif;fill:#ffffff;fill-opacity:1;stroke:none;stroke-width:0.264583"
         x="35.907742"
         y="41.388393"
         id="text795"><tspan
           id="tspan994">C</tspan></text>
      <text
         xml:space="preserve"
         style="font-style:normal;font-weight:normal;font-size:10.5833px;line-height:1.25;font-family:sans-serif;fill:#ffffff;fill-opacity:1;stroke:none;stroke-width:0.264583"
         x="51.159019"
         y="41.388393"
         id="text1003"><tspan
           id="tspan1001">C</tspan></text>
      <text
         xml:space="preserve"
         style="font-style:normal;font-weight:normal;font-size:10.5833px;line-height:1.25;font-family:sans-serif;fill:#ffffff;fill-opacity:1;stroke:none;stroke-width:0.264583"
         x="68.075058"
         y="41.388393"
         id="text1007"><tspan
           id="tspan1005">F</tspan></text>
      <text
         xml:space="preserve"
         style="font-style:normal;font-weight:normal;font-size:10.5833px;line-height:1.25;font-family:sans-serif;fill:#ffffff;fill-opacity:1;stroke:none;stroke-width:0.264583"
         x="84.060143"
         y="41.388393"
         id="text1015"><tspan
           id="tspan1013">r</tspan></text>
      <text
         xml:space="preserve"
         style="font-style:normal;font-weight:normal;font-size:10.5833px;line-height:1.25;font-family:sans-serif;fill:#ffffff;fill-opacity:1;stroke:none;stroke-width:0.264583"
         x="91.344727"
         y="41.388393"
         id="text1019"><tspan
           id="tspan1017">g</tspan></text>
      <text
         xml:space="preserve"
         style="font-style:normal;font-weight:normal;font-size:10.5833px;line-height:1.25;font-family:sans-serif;fill:#ffffff;fill-opacity:1;stroke:none;stroke-width:0.264583"
         x="98.900604"
         y="41.388393"
         id="text1023"><tspan
           id="tspan1021">e</tspan></text>
      <text
         xml:space="preserve"
         style="font-style:normal;font-weight:normal;font-size:6.51329px;line-height:1.25;font-family:sans-serif;fill:#ffffff;fill-opacity:1;stroke:none;stroke-width:0.162832"
         x="44.922176"
         y="40.439991"
         id="text1045"><tspan
           sodipodi:role="line"
           id="tspan1043"
           x="44.922176"
           y="40.439991"
           style="font-style:normal;font-variant:normal;font-weight:normal;font-stretch:normal;font-family:Kokonor;-inkscape-font-specification:Kokonor;stroke-width:0.162832">&amp;</tspan></text>
    </g>
  </g>
</svg>
